<svg width="180" height="95" viewBox="0 0 180 95" fill="none" xmlns="http://www.w3.org/2000/svg">
<path d="M39.336 21.648L39.096 21.408C41.176 19.2 43.704 18.096 46.68 18.096C48.376 18.096 49.88 18.416 51.192 19.056C52.504 19.664 53.528 20.528 54.264 21.648C55.032 22.736 55.416 24 55.416 25.44C55.416 27.36 54.84 29.056 53.688 30.528C52.568 31.968 51 33.104 48.984 33.936C47 34.768 44.712 35.184 42.12 35.184C39.112 35.184 36.44 34.688 34.104 33.696C31.8 32.672 29.976 31.28 28.632 29.52C27.288 27.76 26.616 25.76 26.616 23.52C26.616 21.312 27.144 19.28 28.2 17.424C29.256 15.568 30.728 13.936 32.616 12.528C34.536 11.12 36.76 10.032 39.288 9.264C41.848 8.464 44.616 8.064 47.592 8.064C50.888 8.064 53.96 8.512 56.808 9.408C59.656 10.304 62.152 11.552 64.296 13.152C66.44 14.752 68.104 16.608 69.288 18.72C70.504 20.832 71.112 23.12 71.112 25.584C71.112 27.696 70.696 29.68 69.864 31.536C69.064 33.392 67.944 35.056 66.504 36.528C65.064 37.968 63.4 39.104 61.512 39.936C59.656 40.736 57.688 41.136 55.608 41.136C54.072 41.136 52.696 40.864 51.48 40.32L51.624 40.032C52.168 40.224 52.76 40.4 53.4 40.56C54.072 40.688 54.808 40.752 55.608 40.752C57.656 40.752 59.592 40.352 61.416 39.552C63.24 38.752 64.84 37.664 66.216 36.288C67.624 34.88 68.728 33.264 69.528 31.44C70.328 29.584 70.728 27.632 70.728 25.584C70.728 23.184 70.136 20.944 68.952 18.864C67.768 16.784 66.12 14.976 64.008 13.44C61.896 11.872 59.432 10.656 56.616 9.792C53.832 8.896 50.824 8.448 47.592 8.448C44.68 8.448 41.96 8.832 39.432 9.6C36.936 10.368 34.76 11.44 32.904 12.816C31.048 14.16 29.592 15.744 28.536 17.568C27.512 19.392 27 21.376 27 23.52C27 25.664 27.656 27.6 28.968 29.328C30.28 31.024 32.072 32.368 34.344 33.36C36.648 34.32 39.24 34.8 42.12 34.8C44.68 34.8 46.92 34.416 48.84 33.648C50.792 32.848 52.312 31.744 53.4 30.336C54.488 28.928 55.032 27.296 55.032 25.44C55.032 24.064 54.664 22.864 53.928 21.84C53.224 20.784 52.232 19.968 50.952 19.392C49.704 18.784 48.28 18.48 46.68 18.48C43.8 18.48 41.352 19.536 39.336 21.648ZM65.4 24.72C66.296 23.664 67.272 22.704 68.328 21.84C69.384 20.944 70.456 20.176 71.544 19.536H74.04C73.24 19.76 72.344 20.144 71.352 20.688C70.36 21.2 69.384 21.84 68.424 22.608C67.464 23.344 66.568 24.144 65.736 25.008C64.168 26.768 62.712 28.736 61.368 30.912C60.056 33.056 58.76 35.28 57.48 37.584C56.232 39.856 54.904 42.064 53.496 44.208C52.088 46.32 50.504 48.224 48.744 49.92C47.176 51.488 45.304 52.832 43.128 53.952C40.952 55.072 38.616 55.936 36.12 56.544C33.624 57.184 31.096 57.504 28.536 57.504C24.92 57.504 21.784 56.96 19.128 55.872C16.504 54.784 14.472 53.264 13.032 51.312C11.592 49.328 10.872 46.976 10.872 44.256C10.872 42.272 11.368 40.432 12.36 38.736C13.352 37.008 14.728 35.488 16.488 34.176C18.28 32.832 20.328 31.792 22.632 31.056C24.968 30.32 27.464 29.952 30.12 29.952C32.744 29.952 35 30.304 36.888 31.008C38.808 31.68 40.296 32.64 41.352 33.888C42.408 35.136 42.936 36.624 42.936 38.352C42.936 39.824 42.536 41.216 41.736 42.528C40.968 43.84 39.896 45.008 38.52 46.032C37.144 47.024 35.544 47.808 33.72 48.384C31.928 48.928 30.008 49.2 27.96 49.2C25.368 49.2 23.32 48.736 21.816 47.808C20.312 46.88 19.56 45.632 19.56 44.064C19.56 42.72 20.2 41.504 21.48 40.416C22.76 39.296 24.456 38.416 26.568 37.776C28.68 37.104 31 36.768 33.528 36.768C36.216 36.768 38.696 37.088 40.968 37.728C43.24 38.368 45.208 39.28 46.872 40.464C48.568 41.616 49.88 42.976 50.808 44.544C51.736 46.112 52.2 47.824 52.2 49.68C52.2 52.016 51.608 54.192 50.424 56.208C49.24 58.224 47.576 59.984 45.432 61.488C43.288 63.024 40.792 64.208 37.944 65.04C35.128 65.904 32.072 66.336 28.776 66.336C24.68 66.336 20.936 65.792 17.544 64.704C14.152 63.616 11.208 62.064 8.712 60.048C6.248 58.064 4.344 55.728 3 53.04C1.624 50.32 0.936 47.312 0.936 44.016C0.936 40.752 1.624 37.76 3 35.04C4.344 32.32 6.264 29.968 8.76 27.984C11.256 25.968 14.2 24.416 17.592 23.328C20.984 22.208 24.712 21.648 28.776 21.648C31.624 21.648 34.248 21.968 36.648 22.608C39.08 23.248 41.16 24.144 42.888 25.296C44.648 26.448 45.912 27.776 46.68 29.28L46.344 29.424C45.608 27.92 44.376 26.624 42.648 25.536C40.952 24.416 38.904 23.552 36.504 22.944C34.136 22.336 31.56 22.032 28.776 22.032C24.776 22.032 21.096 22.576 17.736 23.664C14.376 24.72 11.464 26.224 9 28.176C6.568 30.128 4.68 32.448 3.336 35.136C1.992 37.824 1.32 40.784 1.32 44.016C1.32 47.216 1.992 50.176 3.336 52.896C4.68 55.584 6.568 57.888 9 59.808C11.432 61.76 14.328 63.264 17.688 64.32C21.048 65.408 24.744 65.952 28.776 65.952C32.04 65.952 35.064 65.536 37.848 64.704C40.632 63.904 43.064 62.752 45.144 61.248C47.256 59.776 48.888 58.048 50.04 56.064C51.224 54.112 51.816 51.984 51.816 49.68C51.816 47.28 51.016 45.136 49.416 43.248C47.848 41.36 45.688 39.888 42.936 38.832C40.184 37.744 37.032 37.2 33.48 37.2C31.016 37.2 28.744 37.52 26.664 38.16C24.616 38.768 22.984 39.584 21.768 40.608C20.552 41.632 19.944 42.768 19.944 44.016C19.944 45.488 20.664 46.656 22.104 47.52C23.544 48.384 25.496 48.816 27.96 48.816C29.944 48.816 31.816 48.544 33.576 48C35.336 47.456 36.888 46.704 38.232 45.744C39.576 44.784 40.632 43.68 41.4 42.432C42.168 41.152 42.552 39.792 42.552 38.352C42.552 36.72 42.04 35.312 41.016 34.128C39.992 32.912 38.552 31.984 36.696 31.344C34.84 30.672 32.648 30.336 30.12 30.336C27.528 30.336 25.096 30.704 22.824 31.44C20.552 32.144 18.552 33.136 16.824 34.416C15.096 35.696 13.736 37.184 12.744 38.88C11.752 40.544 11.256 42.336 11.256 44.256C11.256 47.68 12.712 50.368 15.624 52.32C18.536 54.24 22.6 55.2 27.816 55.2C30.824 55.2 33.512 54.784 35.88 53.952C38.28 53.12 40.536 51.888 42.648 50.256C44.792 48.592 46.968 46.544 49.176 44.112C51.384 41.648 53.8 38.8 56.424 35.568C59.048 32.336 62.04 28.72 65.4 24.72ZM60.9476 46.944H60.5156L60.9956 46.416C63.5556 43.6 65.6196 41.296 67.1876 39.504C68.7556 37.68 69.7956 36.416 70.3076 35.712H72.0836C70.9956 36.544 69.6196 37.792 67.9556 39.456C66.3236 41.088 64.1636 43.392 61.4756 46.368L60.9476 46.944ZM62.0036 54.096C62.6116 54.096 63.4276 53.792 64.4516 53.184C65.4756 52.576 66.5796 51.776 67.7636 50.784C68.9476 49.76 70.0676 48.672 71.1236 47.52L71.6516 46.944H72.0356L71.6996 47.376C70.5476 48.688 69.3316 49.872 68.0516 50.928C66.8036 51.984 65.6356 52.832 64.5476 53.472C63.4916 54.08 62.6276 54.384 61.9556 54.384C61.6036 54.384 61.2516 54.256 60.8996 54C60.5476 53.776 60.3716 53.392 60.3716 52.848C60.3716 52.144 60.6436 51.392 61.1876 50.592C61.7316 49.792 62.4196 48.976 63.2516 48.144C64.1156 47.312 64.9636 46.512 65.7956 45.744C66.6276 44.976 67.3156 44.272 67.8596 43.632C68.4036 42.96 68.6756 42.384 68.6756 41.904C68.6756 41.424 68.3716 41.184 67.7636 41.184C67.5076 41.184 67.1876 41.232 66.8036 41.328C66.4516 41.392 66.0516 41.52 65.6036 41.712L65.9396 41.28C66.2916 41.12 66.6436 40.992 66.9956 40.896C67.3476 40.768 67.7156 40.704 68.0996 40.704C68.8036 40.704 69.3636 40.848 69.7796 41.136C70.2276 41.424 70.4516 41.888 70.4516 42.528C70.4516 43.296 70.1316 44.08 69.4916 44.88C68.8836 45.648 68.0996 46.4 67.1396 47.136C66.2116 47.872 65.2836 48.608 64.3556 49.344C63.4276 50.048 62.6436 50.736 62.0036 51.408C61.3956 52.048 61.0916 52.672 61.0916 53.28C61.0916 53.824 61.3956 54.096 62.0036 54.096ZM70.7119 54.384C70.2639 54.384 69.9279 54.192 69.7039 53.808C69.4479 53.424 69.3199 52.88 69.3199 52.176C69.3199 51.216 69.6079 50.208 70.1839 49.152C70.7279 48.096 71.4639 47.088 72.3919 46.128C73.3519 45.136 74.4079 44.24 75.5599 43.44C76.7439 42.608 77.9439 41.968 79.1599 41.52C80.4079 41.04 81.5919 40.8 82.7119 40.8C83.6719 40.8 84.1519 41.152 84.1519 41.856C84.1519 42.528 83.7199 43.392 82.8559 44.448C81.9919 45.472 80.9039 46.672 79.5919 48.048C78.5679 49.136 77.4799 50.16 76.3279 51.12C75.1759 52.08 74.1039 52.864 73.1119 53.472C72.1519 54.08 71.3519 54.384 70.7119 54.384ZM70.7599 54.096C71.3039 54.096 72.0079 53.84 72.8719 53.328C73.7679 52.784 74.7759 52.048 75.8959 51.12C77.0159 50.16 78.1679 49.056 79.3519 47.808C80.6639 46.464 81.7199 45.296 82.5199 44.304C83.3519 43.312 83.7679 42.512 83.7679 41.904C83.7679 41.456 83.4639 41.232 82.8559 41.232C82.2799 41.232 81.5599 41.456 80.6959 41.904C79.8639 42.32 78.9679 42.896 78.0079 43.632C77.0479 44.368 76.0879 45.184 75.1279 46.08C74.1999 46.976 73.3519 47.888 72.5839 48.816C71.8159 49.712 71.1919 50.56 70.7119 51.36C70.2319 52.16 69.9919 52.816 69.9919 53.328C69.9919 53.84 70.2479 54.096 70.7599 54.096ZM84.2959 47.376C83.3999 48.4 82.5359 49.2 81.7039 49.776C80.8719 50.352 80.1519 50.64 79.5439 50.64C78.5519 50.64 78.0559 50.144 78.0559 49.152C78.0559 48.576 78.1999 48 78.4879 47.424C78.7759 46.848 79.2879 46.144 80.0239 45.312H81.9919L79.4479 48.144C79.0319 48.56 78.8239 49.056 78.8239 49.632C78.8239 50.112 79.0799 50.352 79.5919 50.352C80.0719 50.352 80.6799 50.096 81.4159 49.584C82.1839 49.072 82.9679 48.384 83.7679 47.52L84.2479 46.944H84.6799L84.2959 47.376ZM83.0344 49.92C86.3944 46.56 89.1304 44.08 91.2424 42.48C93.3864 40.848 94.9704 40.032 95.9944 40.032C96.6664 40.032 97.1944 40.192 97.5784 40.512C97.9944 40.832 98.2024 41.264 98.2024 41.808C98.2024 42.768 97.6744 43.6 96.6184 44.304C95.5624 45.008 94.2824 45.36 92.7784 45.36C92.3304 45.36 91.8664 45.312 91.3864 45.216C90.9064 45.088 90.5864 44.944 90.4264 44.784L90.1864 44.4C90.3464 44.688 90.7464 44.832 91.3864 44.832C92.2504 44.832 93.0824 44.656 93.8824 44.304C94.7144 43.952 95.3864 43.504 95.8984 42.96C96.4424 42.416 96.7144 41.872 96.7144 41.328C96.7144 40.72 96.3624 40.416 95.6584 40.416C95.2424 40.416 94.6024 40.672 93.7384 41.184C92.8744 41.664 91.8824 42.352 90.7624 43.248C89.6424 44.112 88.4584 45.12 87.2104 46.272C85.9624 47.392 84.7144 48.608 83.4664 49.92H83.0344ZM88.4104 54.096C89.2424 54.096 90.1864 53.808 91.2424 53.232C92.3304 52.624 93.4504 51.824 94.6024 50.832C95.7544 49.808 96.8744 48.704 97.9624 47.52L98.4424 46.944H98.8744L98.4904 47.376C97.4024 48.624 96.2344 49.776 94.9864 50.832C93.7384 51.888 92.5384 52.752 91.3864 53.424C90.2664 54.064 89.2744 54.384 88.4104 54.384C87.8984 54.384 87.4024 54.176 86.9224 53.76C86.4744 53.312 86.2504 52.72 86.2504 51.984C86.2504 51.344 86.4584 50.752 86.8744 50.208C87.2904 49.664 87.7704 49.152 88.3144 48.672C88.8584 48.192 89.3384 47.728 89.7544 47.28C90.1704 46.8 90.3784 46.288 90.3784 45.744C90.3784 45.456 90.3304 45.2 90.2344 44.976C90.1704 44.752 90.0744 44.544 89.9464 44.352L89.9944 44.112C90.3464 44.464 90.5384 44.768 90.5704 45.024C90.6344 45.28 90.6664 45.552 90.6664 45.84C90.6664 46.544 90.5064 47.216 90.1864 47.856C89.8664 48.464 89.4824 49.056 89.0344 49.632C88.5864 50.176 88.1864 50.752 87.8344 51.36C87.5144 51.936 87.3544 52.544 87.3544 53.184C87.3544 53.6 87.4824 53.856 87.7384 53.952C88.0264 54.048 88.2504 54.096 88.4104 54.096ZM92.3464 39.36L91.5784 38.496L114.762 12.048H118.17C117.594 12.304 116.826 12.864 115.866 13.728C114.938 14.56 113.93 15.536 112.842 16.656C111.754 17.744 110.682 18.88 109.626 20.064C108.57 21.216 107.626 22.24 106.794 23.136L92.3464 39.36ZM92.3464 39.36L84.2344 48.48H84.5704L83.4664 49.92L79.8664 54H77.0344C78.1864 53.072 79.4024 51.984 80.6824 50.736C81.9304 49.456 83.1144 48.176 84.2344 46.896L91.5784 38.496L92.3464 39.36ZM97.4775 54.384C97.0295 54.384 96.6935 54.192 96.4695 53.808C96.2135 53.424 96.0855 52.88 96.0855 52.176C96.0855 51.216 96.3735 50.208 96.9495 49.152C97.4935 48.096 98.2295 47.088 99.1575 46.128C100.118 45.136 101.174 44.24 102.326 43.44C103.51 42.608 104.71 41.968 105.926 41.52C107.174 41.04 108.358 40.8 109.478 40.8C110.438 40.8 110.918 41.152 110.918 41.856C110.918 42.528 110.486 43.392 109.622 44.448C108.758 45.472 107.67 46.672 106.358 48.048C105.334 49.136 104.246 50.16 103.094 51.12C101.942 52.08 100.87 52.864 99.8775 53.472C98.9175 54.08 98.1175 54.384 97.4775 54.384ZM97.5255 54.096C98.0695 54.096 98.7735 53.84 99.6375 53.328C100.534 52.784 101.542 52.048 102.662 51.12C103.782 50.16 104.934 49.056 106.118 47.808C107.43 46.464 108.486 45.296 109.286 44.304C110.118 43.312 110.534 42.512 110.534 41.904C110.534 41.456 110.23 41.232 109.622 41.232C109.046 41.232 108.326 41.456 107.462 41.904C106.63 42.32 105.734 42.896 104.773 43.632C103.814 44.368 102.854 45.184 101.894 46.08C100.966 46.976 100.118 47.888 99.3495 48.816C98.5815 49.712 97.9575 50.56 97.4775 51.36C96.9975 52.16 96.7575 52.816 96.7575 53.328C96.7575 53.84 97.0135 54.096 97.5255 54.096ZM111.062 47.376C110.166 48.4 109.302 49.2 108.47 49.776C107.638 50.352 106.918 50.64 106.31 50.64C105.318 50.64 104.822 50.144 104.822 49.152C104.822 48.576 104.966 48 105.254 47.424C105.542 46.848 106.054 46.144 106.79 45.312H108.758L106.214 48.144C105.798 48.56 105.59 49.056 105.59 49.632C105.59 50.112 105.846 50.352 106.358 50.352C106.838 50.352 107.446 50.096 108.182 49.584C108.95 49.072 109.734 48.384 110.534 47.52L111.014 46.944H111.446L111.062 47.376ZM111.432 46.944H111L111.48 46.416C113.496 44.08 115.56 41.808 117.672 39.6C119.784 37.36 121.944 35.152 124.152 32.976H124.536C122.424 35.024 120.328 37.168 118.248 39.408C116.168 41.616 114.056 43.952 111.912 46.416L111.432 46.944ZM109.896 52.272C110.248 52.944 110.776 53.28 111.48 53.28C112.152 53.28 112.984 52.976 113.976 52.368C114.968 51.76 115.992 50.976 117.048 50.016C118.104 49.056 119.08 48.032 119.976 46.944C120.904 45.856 121.656 44.832 122.232 43.872C122.84 42.912 123.144 42.128 123.144 41.52C123.144 41.136 122.936 40.944 122.52 40.944C121.88 40.944 121.112 41.2 120.216 41.712C119.32 42.224 118.376 42.88 117.384 43.68C116.424 44.448 115.496 45.248 114.6 46.08C113.736 46.88 113 47.6 112.392 48.24C111.784 48.848 111.384 49.264 111.192 49.488L87.72 77.712L83.928 78.432C84.376 78.08 84.936 77.584 85.608 76.944C86.28 76.304 87 75.584 87.768 74.784C88.504 73.984 89.24 73.184 89.976 72.384C90.712 71.584 91.368 70.848 91.944 70.176C92.52 69.504 92.968 68.992 93.288 68.64L111.96 46.944C112.312 46.56 112.872 45.952 113.64 45.12C114.408 44.256 115.272 43.28 116.232 42.192C117.224 41.104 118.216 40 119.208 38.88C120.232 37.728 121.176 36.64 122.04 35.616C122.936 34.592 123.64 33.712 124.152 32.976H126.072C125.624 33.232 125 33.728 124.2 34.464C123.432 35.168 122.536 36.048 121.512 37.104C120.52 38.128 119.496 39.248 118.44 40.464C117.384 41.68 116.344 42.896 115.32 44.112C114.328 45.328 113.432 46.448 112.632 47.472L112.488 47.232H113.016C114.776 45.44 116.264 44.08 117.48 43.152C118.728 42.192 119.752 41.536 120.552 41.184C121.352 40.832 122.024 40.656 122.568 40.656C122.952 40.656 123.256 40.832 123.48 41.184C123.704 41.504 123.816 41.936 123.816 42.48C123.816 43.792 123.432 45.104 122.664 46.416C121.928 47.696 120.936 48.88 119.688 49.968C118.472 51.056 117.144 51.936 115.704 52.608C114.296 53.248 112.904 53.568 111.528 53.568C110.6 53.568 109.944 53.296 109.56 52.752L109.896 52.272ZM133.737 39.36L132.969 38.496L156.153 12.048H159.561C158.985 12.336 158.217 12.896 157.257 13.728C156.329 14.56 155.305 15.536 154.185 16.656C153.097 17.744 152.025 18.88 150.969 20.064C149.913 21.216 148.985 22.256 148.185 23.184L133.737 39.36ZM133.737 39.36L125.433 48.48H125.961L124.857 49.92L121.257 54H118.425C119.577 53.072 120.793 51.984 122.073 50.736C123.353 49.456 124.537 48.176 125.625 46.896L132.969 38.496L133.737 39.36ZM129.609 54.384C129.225 54.384 128.873 54.208 128.553 53.856C128.265 53.504 128.121 53.072 128.121 52.56C128.121 51.824 128.409 51.04 128.985 50.208C129.561 49.376 130.265 48.56 131.097 47.76C131.961 46.928 132.809 46.144 133.641 45.408C134.505 44.672 135.225 44 135.801 43.392C136.377 42.784 136.665 42.256 136.665 41.808C136.665 41.392 136.409 41.184 135.897 41.184C135.417 41.184 134.745 41.456 133.881 42C133.017 42.512 132.057 43.2 131.001 44.064C129.945 44.896 128.889 45.84 127.833 46.896C126.777 47.92 125.785 48.928 124.857 49.92H124.425C125.353 48.896 126.361 47.856 127.449 46.8C128.537 45.744 129.625 44.768 130.713 43.872C131.801 42.976 132.809 42.256 133.737 41.712C134.665 41.168 135.401 40.896 135.945 40.896C136.361 40.896 136.729 41.04 137.049 41.328C137.401 41.584 137.577 42 137.577 42.576C137.577 43.344 137.273 44.128 136.665 44.928C136.089 45.728 135.369 46.528 134.505 47.328C133.641 48.096 132.777 48.848 131.913 49.584C131.049 50.288 130.313 50.976 129.705 51.648C129.129 52.288 128.841 52.848 128.841 53.328C128.841 53.84 129.129 54.096 129.705 54.096C130.249 54.096 131.017 53.792 132.009 53.184C133.033 52.576 134.137 51.776 135.321 50.784C136.505 49.76 137.625 48.672 138.681 47.52L139.161 46.944H139.593L139.209 47.376C138.089 48.688 136.905 49.872 135.657 50.928C134.409 51.984 133.257 52.832 132.201 53.472C131.145 54.08 130.281 54.384 129.609 54.384Z" fill="black"/>
<path d="M137.504 59.944C138.128 58.68 138.768 57.736 139.424 57.112C140.096 56.472 140.656 56.152 141.104 56.152C141.488 56.152 141.68 56.352 141.68 56.752C141.68 57.44 141.408 58.184 140.864 58.984C140.32 59.768 139.576 60.56 138.632 61.36C137.688 62.16 136.616 62.928 135.416 63.664C134.216 64.384 132.952 65.032 131.624 65.608C130.312 66.184 129.008 66.64 127.712 66.976C126.416 67.296 125.208 67.456 124.088 67.456C122.344 67.456 120.84 67.248 119.576 66.832C118.312 66.4 117.336 65.792 116.648 65.008C115.976 64.224 115.64 63.296 115.64 62.224C115.64 61.408 115.864 60.648 116.312 59.944C116.76 59.24 117.384 58.616 118.184 58.072C118.984 57.528 119.904 57.104 120.944 56.8C121.984 56.496 123.104 56.344 124.304 56.344C125.712 56.344 127.128 56.512 128.552 56.848C129.976 57.184 131.344 57.648 132.656 58.24C133.968 58.832 135.16 59.52 136.232 60.304C137.32 61.088 138.224 61.936 138.944 62.848C139.664 63.744 140.136 64.664 140.36 65.608L140.192 65.656C139.952 64.728 139.472 63.824 138.752 62.944C138.032 62.048 137.136 61.216 136.064 60.448C134.992 59.68 133.808 59.008 132.512 58.432C131.232 57.856 129.888 57.408 128.48 57.088C127.072 56.752 125.68 56.584 124.304 56.584C123.12 56.584 122.016 56.728 120.992 57.016C119.984 57.304 119.096 57.704 118.328 58.216C117.56 58.712 116.96 59.304 116.528 59.992C116.096 60.664 115.88 61.4 115.88 62.2C115.88 63.784 116.6 65.016 118.04 65.896C119.496 66.776 121.512 67.216 124.088 67.216C125.176 67.216 126.352 67.056 127.616 66.736C128.896 66.4 130.184 65.952 131.48 65.392C132.776 64.832 134.016 64.2 135.2 63.496C136.4 62.776 137.464 62.024 138.392 61.24C139.336 60.456 140.08 59.688 140.624 58.936C141.168 58.168 141.44 57.456 141.44 56.8C141.44 56.544 141.344 56.416 141.152 56.416C140.768 56.416 140.28 56.688 139.688 57.232C139.096 57.776 138.488 58.696 137.864 59.992C137.096 61.592 136.384 63.12 135.728 64.576C135.088 66.032 134.456 67.416 133.832 68.728C133.224 70.024 132.592 71.216 131.936 72.304C131.296 73.392 130.6 74.376 129.848 75.256C129.112 76.12 128.28 76.856 127.352 77.464C126.424 78.072 125.376 78.536 124.208 78.856C123.04 79.192 121.704 79.36 120.2 79.36C118.616 79.36 117.144 79.128 115.784 78.664C114.424 78.2 113.224 77.552 112.184 76.72C111.16 75.888 110.36 74.92 109.784 73.816C109.208 72.696 108.92 71.496 108.92 70.216C108.92 68.968 109.208 67.8 109.784 66.712C110.36 65.624 111.152 64.672 112.16 63.856C113.184 63.024 114.36 62.376 115.688 61.912C117.032 61.448 118.472 61.216 120.008 61.216C121.688 61.216 123.176 61.496 124.472 62.056C125.784 62.616 126.808 63.384 127.544 64.36C128.296 65.336 128.672 66.448 128.672 67.696C128.672 68.656 128.44 69.552 127.976 70.384C127.512 71.2 126.872 71.928 126.056 72.568C125.24 73.192 124.288 73.68 123.2 74.032C122.112 74.384 120.944 74.56 119.696 74.56C118.432 74.56 117.328 74.368 116.384 73.984C115.456 73.6 114.736 73.064 114.224 72.376C113.712 71.688 113.456 70.88 113.456 69.952C113.456 69.008 113.736 68.16 114.296 67.408C114.856 66.656 115.616 66.064 116.576 65.632C117.536 65.184 118.616 64.96 119.816 64.96C121.112 64.96 122.16 65.232 122.96 65.776C123.776 66.304 124.184 66.992 124.184 67.84C124.184 68.432 123.992 68.968 123.608 69.448C123.224 69.928 122.704 70.312 122.048 70.6C121.392 70.872 120.648 71.008 119.816 71.008C119.368 71.008 119 70.92 118.712 70.744C118.424 70.552 118.28 70.312 118.28 70.024C118.28 69.608 118.6 69.288 119.24 69.064C119.896 68.824 120.744 68.704 121.784 68.704C123.48 68.704 124.968 68.992 126.248 69.568C127.544 70.128 128.552 70.904 129.272 71.896C130.008 72.888 130.376 74.04 130.376 75.352C130.376 76.36 130.096 77.296 129.536 78.16C128.976 79.024 128.192 79.776 127.184 80.416C126.176 81.072 125 81.584 123.656 81.952C122.328 82.32 120.888 82.504 119.336 82.504C117.224 82.504 115.288 82.216 113.528 81.64C111.768 81.064 110.24 80.256 108.944 79.216C107.664 78.176 106.672 76.944 105.968 75.52C105.264 74.08 104.912 72.512 104.912 70.816C104.912 69.216 105.248 67.688 105.92 66.232C106.592 64.76 107.544 63.432 108.776 62.248C110.024 61.064 111.496 60.104 113.192 59.368L113.312 59.584C111.664 60.304 110.224 61.248 108.992 62.416C107.776 63.568 106.84 64.872 106.184 66.328C105.512 67.768 105.176 69.28 105.176 70.864C105.176 72.528 105.528 74.056 106.232 75.448C106.92 76.84 107.896 78.04 109.16 79.048C110.424 80.072 111.92 80.864 113.648 81.424C115.376 81.984 117.272 82.264 119.336 82.264C120.856 82.264 122.264 82.088 123.56 81.736C124.872 81.384 126.016 80.888 126.992 80.248C127.984 79.624 128.752 78.888 129.296 78.04C129.856 77.208 130.136 76.312 130.136 75.352C130.136 74.104 129.776 73 129.056 72.04C128.352 71.064 127.368 70.304 126.104 69.76C124.856 69.216 123.424 68.944 121.808 68.944C120.784 68.944 119.976 69.048 119.384 69.256C118.808 69.448 118.52 69.704 118.52 70.024C118.52 70.232 118.64 70.408 118.88 70.552C119.136 70.696 119.448 70.768 119.816 70.768C120.6 70.768 121.296 70.64 121.904 70.384C122.528 70.128 123.024 69.776 123.392 69.328C123.76 68.88 123.944 68.376 123.944 67.816C123.944 67.048 123.552 66.424 122.768 65.944C122 65.448 121.016 65.2 119.816 65.2C118.664 65.2 117.624 65.408 116.696 65.824C115.768 66.24 115.032 66.808 114.488 67.528C113.96 68.248 113.696 69.056 113.696 69.952C113.696 70.832 113.944 71.6 114.44 72.256C114.936 72.912 115.632 73.424 116.528 73.792C117.44 74.144 118.496 74.32 119.696 74.32C120.896 74.32 122.024 74.152 123.08 73.816C124.136 73.464 125.064 72.984 125.864 72.376C126.664 71.768 127.288 71.064 127.736 70.264C128.2 69.464 128.432 68.608 128.432 67.696C128.432 66.496 128.064 65.432 127.328 64.504C126.608 63.56 125.608 62.816 124.328 62.272C123.064 61.728 121.624 61.456 120.008 61.456C118.52 61.456 117.12 61.688 115.808 62.152C114.496 62.6 113.344 63.224 112.352 64.024C111.36 64.824 110.576 65.76 110 66.832C109.44 67.888 109.16 69.016 109.16 70.216C109.16 71.256 109.416 72.232 109.928 73.144C110.456 74.056 111.176 74.856 112.088 75.544C113 76.232 114.056 76.768 115.256 77.152C116.472 77.552 117.768 77.752 119.144 77.752C120.264 77.752 121.32 77.64 122.312 77.416C123.32 77.192 124.272 76.848 125.168 76.384C126.064 75.92 126.928 75.336 127.76 74.632C128.608 73.928 129.432 73.096 130.232 72.136C131.032 71.176 131.824 70.088 132.608 68.872C133.408 67.656 134.208 66.312 135.008 64.84C135.824 63.352 136.656 61.72 137.504 59.944ZM134.944 76.216C134.544 76.216 134.224 76.064 133.984 75.76C133.744 75.44 133.624 75.04 133.624 74.56C133.624 74.064 133.768 73.544 134.056 73C134.344 72.456 134.728 71.936 135.208 71.44C135.704 70.928 136.256 70.464 136.864 70.048C137.472 69.632 138.096 69.304 138.736 69.064C139.376 68.808 139.992 68.68 140.584 68.68C141.336 68.68 141.712 68.912 141.712 69.376C141.712 69.632 141.576 69.952 141.304 70.336C141.032 70.72 140.72 71.048 140.368 71.32H139.288C139.608 71.176 139.92 70.976 140.224 70.72C140.544 70.448 140.816 70.176 141.04 69.904C141.264 69.632 141.376 69.424 141.376 69.28C141.376 69.008 141.168 68.872 140.752 68.872C140.352 68.872 139.872 69.032 139.312 69.352C138.752 69.672 138.168 70.088 137.56 70.6C136.968 71.112 136.416 71.664 135.904 72.256C135.392 72.848 134.976 73.424 134.656 73.984C134.336 74.544 134.176 75.024 134.176 75.424C134.176 75.856 134.448 76.072 134.992 76.072C135.552 76.072 136.192 75.912 136.912 75.592C137.648 75.256 138.392 74.816 139.144 74.272C139.896 73.712 140.584 73.08 141.208 72.376L141.472 72.088H141.712L141.496 72.304C140.84 73.072 140.12 73.752 139.336 74.344C138.552 74.92 137.776 75.376 137.008 75.712C136.256 76.048 135.568 76.216 134.944 76.216ZM146.013 67.864L145.557 67.36L156.381 55.048H158.277C157.957 55.192 157.533 55.504 157.005 55.984C156.477 56.448 155.909 56.992 155.301 57.616C154.693 58.224 154.093 58.848 153.501 59.488C152.909 60.128 152.389 60.704 151.941 61.216L146.013 67.864ZM146.013 67.864L141.357 72.904H141.669L141.069 73.72L139.029 76H137.469C138.109 75.488 138.789 74.88 139.509 74.176C140.213 73.472 140.869 72.768 141.477 72.064L145.557 67.36L146.013 67.864ZM143.709 76.216C143.485 76.216 143.285 76.12 143.109 75.928C142.949 75.72 142.869 75.48 142.869 75.208C142.869 74.776 143.029 74.336 143.349 73.888C143.669 73.424 144.061 72.968 144.525 72.52C145.005 72.072 145.485 71.64 145.965 71.224C146.445 70.808 146.837 70.432 147.141 70.096C147.461 69.744 147.621 69.448 147.621 69.208C147.621 68.968 147.485 68.848 147.213 68.848C146.925 68.848 146.541 69 146.061 69.304C145.581 69.592 145.045 69.976 144.453 70.456C143.877 70.936 143.293 71.464 142.701 72.04C142.109 72.6 141.565 73.16 141.069 73.72H140.805C141.317 73.144 141.877 72.568 142.485 71.992C143.093 71.4 143.701 70.856 144.309 70.36C144.933 69.864 145.493 69.464 145.989 69.16C146.501 68.84 146.917 68.68 147.237 68.68C147.461 68.68 147.669 68.76 147.861 68.92C148.053 69.08 148.149 69.32 148.149 69.64C148.149 70.072 147.981 70.512 147.645 70.96C147.325 71.392 146.917 71.824 146.421 72.256C145.941 72.688 145.453 73.112 144.957 73.528C144.477 73.944 144.069 74.328 143.733 74.68C143.413 75.032 143.253 75.352 143.253 75.64C143.253 75.928 143.421 76.072 143.757 76.072C144.061 76.072 144.493 75.896 145.053 75.544C145.629 75.192 146.245 74.744 146.901 74.2C147.557 73.64 148.173 73.032 148.749 72.376L149.013 72.088H149.253L149.037 72.304C148.413 73.04 147.757 73.704 147.069 74.296C146.381 74.872 145.733 75.336 145.125 75.688C144.533 76.04 144.061 76.216 143.709 76.216ZM151.807 68.968H153.607C153.271 69.144 152.839 69.456 152.311 69.904C151.783 70.352 151.231 70.856 150.655 71.416C150.095 71.976 149.559 72.544 149.047 73.12C148.551 73.696 148.143 74.216 147.823 74.68C147.503 75.128 147.343 75.448 147.343 75.64C147.343 75.928 147.471 76.072 147.727 76.072C148.015 76.072 148.447 75.88 149.023 75.496C149.599 75.112 150.247 74.592 150.967 73.936C151.703 73.264 152.431 72.52 153.151 71.704H153.415C152.071 73.128 150.895 74.24 149.887 75.04C148.895 75.824 148.167 76.216 147.703 76.216C147.511 76.216 147.367 76.152 147.271 76.024C147.175 75.896 147.127 75.736 147.127 75.544C147.127 75.144 147.271 74.68 147.559 74.152C147.831 73.608 148.311 72.928 148.999 72.112C149.687 71.28 150.623 70.232 151.807 68.968ZM151.615 76.216C151.167 76.216 150.943 75.984 150.943 75.52C150.943 74.928 151.311 74.12 152.047 73.096C152.799 72.056 153.999 70.68 155.647 68.968H157.447C157.239 69.08 156.991 69.24 156.703 69.448C156.431 69.656 156.111 69.936 155.743 70.288C154.671 71.376 153.807 72.272 153.151 72.976C152.495 73.664 152.023 74.216 151.735 74.632C151.447 75.032 151.303 75.36 151.303 75.616C151.303 75.92 151.415 76.072 151.639 76.072C151.927 76.072 152.327 75.904 152.839 75.568C153.351 75.216 153.919 74.768 154.543 74.224C155.167 73.664 155.783 73.048 156.391 72.376L156.655 72.088H156.895L156.679 72.304C156.023 73.072 155.359 73.752 154.687 74.344C154.031 74.92 153.431 75.376 152.887 75.712C152.359 76.048 151.935 76.216 151.615 76.216ZM156.904 72.088H156.664L156.952 71.776C158.376 70.208 159.52 68.928 160.384 67.936C161.264 66.928 161.84 66.216 162.112 65.8H163.12C162.496 66.264 161.728 66.96 160.816 67.888C159.904 68.816 158.696 70.104 157.192 71.752L156.904 72.088ZM162.64 72.304C161.776 73.248 160.888 73.984 159.976 74.512C159.064 75.024 158.168 75.28 157.288 75.28C156.632 75.28 156.08 75.344 155.632 75.472C155.168 75.584 154.936 75.728 154.936 75.904C154.936 76.016 155.032 76.072 155.224 76.072C155.864 76.072 156.472 75.904 157.048 75.568C157.64 75.216 158.176 74.76 158.656 74.2C159.136 73.624 159.512 72.984 159.784 72.28C160.072 71.56 160.216 70.824 160.216 70.072C160.216 69.624 160.248 69.232 160.312 68.896C160.392 68.56 160.544 68.208 160.768 67.84C160.992 67.456 161.344 67.016 161.824 66.52L163.096 65.8C162.536 66.232 162.104 66.584 161.8 66.856C161.496 67.112 161.28 67.352 161.152 67.576C161.04 67.784 160.984 68.008 160.984 68.248C160.984 68.504 161.024 68.864 161.104 69.328C161.2 69.776 161.248 70.232 161.248 70.696C161.248 71.368 161.072 72.032 160.72 72.688C160.384 73.344 159.92 73.936 159.328 74.464C158.752 74.992 158.112 75.416 157.408 75.736C156.704 76.056 155.992 76.216 155.272 76.216C154.952 76.216 154.792 76.112 154.792 75.904C154.792 75.696 155.032 75.512 155.512 75.352C155.992 75.192 156.576 75.112 157.264 75.112C158.976 75.112 160.664 74.2 162.328 72.376L162.616 72.088H162.832L162.64 72.304ZM163.817 66.88V66.664H175.769V66.88H163.817ZM163.937 71.704C163.041 72.712 162.409 73.504 162.041 74.08C161.673 74.656 161.489 75.144 161.489 75.544C161.489 75.896 161.625 76.072 161.897 76.072C162.185 76.072 162.513 75.96 162.881 75.736C163.265 75.496 163.729 75.112 164.273 74.584C164.833 74.04 165.529 73.304 166.361 72.376L166.625 72.088H166.865L166.649 72.304C165.401 73.728 164.409 74.736 163.673 75.328C162.937 75.92 162.321 76.216 161.825 76.216C161.281 76.216 161.009 75.912 161.009 75.304C161.009 74.36 161.545 73.288 162.617 72.088C162.921 71.704 163.209 71.352 163.481 71.032C163.769 70.696 164.089 70.336 164.441 69.952C164.809 69.552 165.249 69.072 165.761 68.512C166.289 67.936 166.953 67.224 167.753 66.376C168.569 65.528 169.561 64.48 170.729 63.232C171.001 63.232 171.305 63.208 171.641 63.16C171.993 63.112 172.337 63.048 172.673 62.968C172.177 63.32 171.473 63.936 170.561 64.816C169.649 65.68 168.617 66.712 167.465 67.912C166.329 69.096 165.153 70.36 163.937 71.704ZM166.865 76.072C167.377 76.072 167.969 75.912 168.641 75.592C169.329 75.256 170.033 74.816 170.753 74.272C171.489 73.712 172.161 73.08 172.769 72.376L173.057 72.088H173.297L173.081 72.304C172.425 73.04 171.713 73.704 170.945 74.296C170.193 74.888 169.457 75.36 168.737 75.712C168.017 76.048 167.393 76.216 166.865 76.216C166.465 76.216 166.145 76.072 165.905 75.784C165.665 75.496 165.545 75.104 165.545 74.608C165.545 74.112 165.689 73.592 165.977 73.048C166.265 72.504 166.649 71.976 167.129 71.464C167.625 70.952 168.177 70.488 168.785 70.072C169.409 69.64 170.041 69.304 170.681 69.064C171.321 68.808 171.937 68.68 172.529 68.68C172.785 68.68 172.985 68.736 173.129 68.848C173.289 68.96 173.369 69.104 173.369 69.28C173.369 69.6 173.185 69.936 172.817 70.288C172.465 70.64 172.001 70.976 171.425 71.296C170.849 71.6 170.233 71.856 169.577 72.064C168.937 72.256 168.321 72.352 167.729 72.352L167.945 72.136C168.505 72.12 169.081 72.016 169.673 71.824C170.265 71.632 170.817 71.392 171.329 71.104C171.841 70.816 172.257 70.512 172.577 70.192C172.913 69.856 173.081 69.552 173.081 69.28C173.081 69.024 172.921 68.896 172.601 68.896C172.217 68.896 171.753 69.064 171.209 69.4C170.665 69.72 170.097 70.136 169.505 70.648C168.913 71.16 168.361 71.712 167.849 72.304C167.337 72.896 166.929 73.472 166.625 74.032C166.305 74.576 166.145 75.04 166.145 75.424C166.145 75.856 166.385 76.072 166.865 76.072ZM173.287 72.088H173.047L173.335 71.776C174.759 70.208 175.903 68.928 176.767 67.936C177.647 66.928 178.223 66.216 178.495 65.8H179.503C178.879 66.264 178.103 66.96 177.175 67.888C176.263 68.8 175.063 70.088 173.575 71.752L173.287 72.088ZM173.887 76.072C174.207 76.072 174.655 75.896 175.231 75.544C175.807 75.192 176.423 74.744 177.079 74.2C177.751 73.64 178.383 73.032 178.975 72.376L179.239 72.088H179.479L179.263 72.304C178.623 73.04 177.951 73.704 177.247 74.296C176.559 74.872 175.911 75.336 175.303 75.688C174.711 76.04 174.231 76.216 173.863 76.216C173.655 76.216 173.447 76.144 173.239 76C173.047 75.872 172.951 75.664 172.951 75.376C172.951 74.976 173.103 74.56 173.407 74.128C173.727 73.68 174.119 73.224 174.583 72.76C175.047 72.296 175.511 71.848 175.975 71.416C176.439 70.968 176.823 70.568 177.127 70.216C177.447 69.848 177.607 69.536 177.607 69.28C177.607 68.992 177.431 68.848 177.079 68.848C176.935 68.848 176.759 68.88 176.551 68.944C176.343 68.992 176.119 69.064 175.879 69.16L176.071 68.896C176.263 68.816 176.455 68.752 176.647 68.704C176.839 68.64 177.047 68.608 177.271 68.608C177.655 68.608 177.967 68.688 178.207 68.848C178.447 68.992 178.567 69.24 178.567 69.592C178.567 70.024 178.391 70.456 178.039 70.888C177.703 71.32 177.271 71.752 176.743 72.184C176.231 72.6 175.711 73.008 175.183 73.408C174.671 73.792 174.239 74.168 173.887 74.536C173.551 74.904 173.383 75.264 173.383 75.616C173.383 75.92 173.551 76.072 173.887 76.072Z" fill="black"/>
</svg>
